P2
2	2	192
64 190
0 120